/* XPM */
static char * natpad_48_xpm[] = {
"48 48 194 2",
"  	c None",
". 	c #000000",
"+ 	c #A2A800",
"@ 	c #F6FF00",
"# 	c #F8FF00",
"$ 	c #FFFF00",
"% 	c #FCFF01",
"& 	c #FEFF00",
"* 	c #FDFF00",
"= 	c #FCFF00",
"- 	c #FBFF00",
"; 	c #FAFF00",
"> 	c #F9FF00",
", 	c #F7FF00",
"' 	c #F5FE01",
") 	c #F5FC0F",
"! 	c #F6FC17",
"~ 	c #F6FB1C",
"{ 	c #F7FC1C",
"] 	c #F7FC1B",
"^ 	c #F8FD26",
"/ 	c #F9FD2B",
"( 	c #F9FC2D",
"_ 	c #FAFC37",
": 	c #FAFC36",
"< 	c #FAFD36",
"[ 	c #F9FC36",
"} 	c #FAFC3D",
"| 	c #F7FC21",
"1 	c #F4FE00",
"2 	c #F5FE00",
"3 	c #F3FC00",
"4 	c #F2FB00",
"5 	c #FAFD30",
"6 	c #FFFC5D",
"7 	c #FAFD3D",
"8 	c #FAFD45",
"9 	c #F9FD3C",
"0 	c #F6FE00",
"a 	c #F5FF00",
"b 	c #FAFE2E",
"c 	c #FFFC59",
"d 	c #FFFC5A",
"e 	c #FFFC5B",
"f 	c #FFFC5C",
"g 	c #FFFC5E",
"h 	c #FFFC5F",
"i 	c #FFFC60",
"j 	c #FFFC66",
"k 	c #FCFD3D",
"l 	c #E7EA00",
"m 	c #E6E900",
"n 	c #E5E700",
"o 	c #F4FC00",
"p 	c #FDFE20",
"q 	c #FFFC86",
"r 	c #FFFC8A",
"s 	c #FEFD73",
"t 	c #FEFD52",
"u 	c #FEFD58",
"v 	c #FEFC58",
"w 	c #FBFD35",
"x 	c #F3FB00",
"y 	c #E4E700",
"z 	c #FBFE20",
"A 	c #FFFC82",
"B 	c #FFFC7F",
"C 	c #FFFC84",
"D 	c #FCFD5A",
"E 	c #F6FE04",
"F 	c #FEFC56",
"G 	c #FFFD59",
"H 	c #F6FE02",
"I 	c #FCFD42",
"J 	c #FEFC55",
"K 	c #FDFC4F",
"L 	c #FDFC4E",
"M 	c #FDFC51",
"N 	c #FDFD51",
"O 	c #FDFC52",
"P 	c #FEFC52",
"Q 	c #FFFD5A",
"R 	c #FEFD51",
"S 	c #FEFD53",
"T 	c #E4E600",
"U 	c #E6E800",
"V 	c #E5E800",
"W 	c #FAFE20",
"X 	c #FDFF07",
"Y 	c #F9FF07",
"Z 	c #FEFD54",
"` 	c #FBFD3C",
" .	c #F4FF00",
"..	c #F8FE20",
"+.	c #F4FD00",
"@.	c #EDF200",
"#.	c #ECF200",
"$.	c #EFF500",
"%.	c #A8A63D",
"&.	c #F6FF02",
"*.	c #FCFD48",
"=.	c #FDFD4C",
"-.	c #F8FF12",
";.	c #FAFE2D",
">.	c #C2C900",
",.	c #E9F200",
"'.	c #FDFD47",
").	c #545700",
"!.	c #343600",
"~.	c #F3FB06",
"{.	c #FEFC5A",
"].	c #F2FC00",
"^.	c #F1FA01",
"/.	c #FBFD3B",
"(.	c #F7FF01",
"_.	c #F4F900",
":.	c #FEFD5A",
"<.	c #FCFD47",
"[.	c #DFE700",
"}.	c #F8FD20",
"|.	c #F8FF0B",
"1.	c #E9F100",
"2.	c #F9FD29",
"3.	c #F8FF04",
"4.	c #FEFD56",
"5.	c #F6FB20",
"6.	c #F3F900",
"7.	c #FBFD32",
"8.	c #FAFF07",
"9.	c #FFFC61",
"0.	c #FCFD44",
"a.	c #F8FE00",
"b.	c #FEFD57",
"c.	c #FAFF1A",
"d.	c #F6FD1A",
"e.	c #FDFF01",
"f.	c #131400",
"g.	c #E3EB00",
"h.	c #F7FF02",
"i.	c #FCFD43",
"j.	c #FBFD36",
"k.	c #FAFE27",
"l.	c #FAFF16",
"m.	c #FAFF04",
"n.	c #F3FB03",
"o.	c #FFFC62",
"p.	c #F6FE03",
"q.	c #F6FE01",
"r.	c #F4FE01",
"s.	c #F1E823",
"t.	c #FBE42F",
"u.	c #F9E62A",
"v.	c #FBEA24",
"w.	c #FCEB23",
"x.	c #F7EB21",
"y.	c #EDED1C",
"z.	c #F8E823",
"A.	c #F7F40E",
"B.	c #020200",
"C.	c #DFEE1A",
"D.	c #FDD843",
"E.	c #FFDA41",
"F.	c #FFDA40",
"G.	c #FFDB40",
"H.	c #FEDA40",
"I.	c #FDD942",
"J.	c #F1F212",
"K.	c #E9FB00",
"L.	c #F2DD39",
"M.	c #FFDC3E",
"N.	c #FEDD3C",
"O.	c #FFDC3D",
"P.	c #FFDB3F",
"Q.	c #F1DF36",
"R.	c #F1FF00",
"S.	c #EFEB1F",
"T.	c #FFDA42",
"U.	c #F3E921",
"V.	c #010100",
"W.	c #F1FE00",
"X.	c #F4E034",
"Y.	c #F3DC3C",
"Z.	c #F2DF38",
"`.	c #F4DF39",
" +	c #F4DC3D",
".+	c #FDE24D",
"++	c #FCFE20",
"@+	c #EDFF00",
"#+	c #DDFF00",
"$+	c #E0FF00",
"%+	c #DFFF00",
"&+	c #E2FF00",
"*+	c #DEFF00",
"=+	c #202000",
"                                                                                                ",
"                                                                                                ",
"                                                                                                ",
"              . . . . . . . . . . . . . . . . . . . . . . . . . . . . . . . . . . . . . . . . . ",
"              . + @ @ @ @ @ @ @ @ @ @ @ @ @ @ @ @ @ @ @ @ @ @ @ @ @ @ @ @ @ @ @ @ @ @ @ @ @ + . ",
"              . # $ % & $ $ * = - ; > , @ ' ) ! ~ { ] ^ / ( _ _ : < : [ } | 1 2 3 4 2 2 2 = @ . ",
"              . * ; 5 6 7 8 9 0 a b c d c d e f g g g g g h i i i i i i j k a 0 l m l n o $ @ . ",
"              . 4 p 6 6 q r s a a t h d d d d c c c c c c c u v v v v v g w a x n m m y o $ @ . ",
"              . z 6 6 A B C D a E F h f f f f f f f e d v G u c f e u e 6 6 @ x n l l n o $ @ . ",
"              . 6 ; 6 6 6 6 6 2 H I J K L K M N O P v f Q v u Q R S 6 6 6 k @ x T U U V 2 $ @ . ",
"              . 6 - @ W 6 6 z ; ; - = = = = = = X Y 2 6 Z c 6 `  .E 6 ..a @ @ +.@.@.#.$.@ $ @ . ",
"              . %.$ @ @ @ @ @ @ @ @ @ @ @ @ @ @ @ @ @ &.*.i =.1 > $ $ $ $ $ $ $ $ * ; , @ $ @ . ",
"              . . . . . . . . . . . . . . . . . . @ = -.f h ;.@ @ @ @ @ @ @ @ @ @ @ @ @ @ @ + . ",
"                                              . >.,.> '.6 6 4 $ @ ).. . . . . . . . . . . . . . ",
"                                              !.@ $ ~.f e {.].@ >..                             ",
"                                            . >.^.- /.g 6 6 = @ !.                              ",
"                                            !.@ $ (.G f 6 6 $ @ .                               ",
"                                          . >._.$ 6 6 6 6 p * @ .                               ",
"                                          !.@ $ ; i :.6 <.$ # >..                               ",
"                                        . >.[.* }.h u g |.$ @ !.                                ",
"                                        !.@ $ 4 Z e 6 t > - @ .                                 ",
"                                      . >.1.* 2.h c i 6 = @ >..                                 ",
"                                      !.@ $ 3.4.f c 6 5.= @ !.                                  ",
"                                    . >.6.$ 7.g v f 6 1 @ @ .                                   ",
"                                    !.# $ 8.9.u u 6 0.$ @ >..                                   ",
"                                  . >.* a.*.f u b.i c.$ @ !.                                    ",
"                                  !.@ * d.9.c c v h e.> @ .                                     ",
"                                f.g.= h.b.e u v e i.$ @ @ .                                     ",
"                              . >.# $ j.i u u G i k.$ @ >..                                     ",
"                              !.@ * p 6 b.c v d e l.$ @ !.                                      ",
"                            . >.@ ; 6 g u u v f S m.- @ .                                       ",
"                            !.@ = n.o.e d d d 6 4.; 2 >..                                       ",
"                          . >.@ ; : g u c d d 6 6 = @ !.                                        ",
"                          !.@ $ @ p.H q.H H 2 2 2 - @ .                                         ",
"                        . >.@ & @ a a a a a @ a a = @ .                                         ",
"                        !.@ $ r.s.t.u.v.w.x.y.z.A.= @ B.                                        ",
"                      . >.@ @ C.D.E.E.F.G.G.H.I.J.@ ).                                          ",
"                      !.@ = K.L.M.N.O.O.O.O.P.Q.R.@ .                                           ",
"                    . >.@ > S.T.P.P.P.M.O.N.G.U.= @ .                                           ",
"                  V.. # * W.X.Y.Z.Z.`. +.+6 6 ++= >..                                           ",
"                  . %.$ > > @+#+$+%+&+*+6 6 6 6 @ !.                                            ",
"                  . 6 $ $ $ $ $ $ $ $ $ $ $ $ = >..                                             ",
"                  . + @ @ @ @ @ @ @ @ @ @ @ @ >.f.=+                                            ",
"                  . . . . . . . . . . . . . . . .                                               ",
"                                                                                                ",
"                                                                                                ",
"                                                                                                ",
"                                                                                                "};
