<?xml version="1.0" standalone="no"?>
<!DOCTYPE svg PUBLIC "-//W3C//DTD SVG 20010904//EN"
 "http://www.w3.org/TR/2001/REC-SVG-20010904/DTD/svg10.dtd">
<svg version="1.0" xmlns="http://www.w3.org/2000/svg"
 width="505.000000pt" height="559.000000pt" viewBox="0 0 505.000000 559.000000"
 preserveAspectRatio="xMidYMid meet">
<metadata>
Created by potrace 1.14, written by Peter Selinger 2001-2017
</metadata>
<g transform="translate(0.000000,559.000000) scale(0.100000,-0.100000)"
fill="#000000" stroke="none">
<path d="M399 5138 c-1 -15 -1 -1214 0 -1240 1 -17 17 -18 201 -18 153 0 200
3 201 13 5 73 38 214 69 295 87 225 296 404 514 438 21 3 48 8 60 10 60 12
525 25 554 16 9 -3 12 -84 12 -358 l0 -354 495 0 495 0 0 354 c0 329 1 354 18
358 24 5 270 1 367 -6 240 -19 412 -86 542 -213 121 -118 176 -226 217 -431
l23 -117 207 -3 207 -2 -3 635 -3 635 -2087 0 c-1663 0 -2088 -3 -2089 -12z"/>
<path d="M2010 3065 c0 -267 3 -485 8 -486 4 -1 226 -2 495 -2 l487 -2 0 488
0 487 -495 0 -495 0 0 -485z"/>
<path d="M2000 1753 l0 -463 240 0 240 0 0 -22 c0 -38 -27 -127 -55 -183 -52
-102 -153 -189 -323 -278 l-101 -53 97 -180 c53 -100 104 -191 112 -204 l16
-23 94 48 c389 195 571 385 645 679 38 150 43 228 44 696 l1 445 -505 0 -505
0 0 -462z"/>
</g>
</svg>
